<svg width="309" height="29" viewBox="0 0 309 29" fill="none" xmlns="http://www.w3.org/2000/svg">
<path d="M18.88 1.76L11.52 15.936V24H7.872V15.936L0.48 1.76H4.544L9.696 12.672L14.848 1.76H18.88ZM29.423 24.288C27.759 24.288 26.255 23.9147 24.911 23.168C23.567 22.4 22.511 21.3333 21.743 19.968C20.975 18.5813 20.591 16.9813 20.591 15.168C20.591 13.376 20.9857 11.7867 21.775 10.4C22.5643 9.01333 23.6417 7.94667 25.007 7.2C26.3723 6.45333 27.8977 6.08 29.583 6.08C31.2683 6.08 32.7937 6.45333 34.159 7.2C35.5243 7.94667 36.6017 9.01333 37.391 10.4C38.1803 11.7867 38.575 13.376 38.575 15.168C38.575 16.96 38.1697 18.5493 37.359 19.936C36.5483 21.3227 35.439 22.4 34.031 23.168C32.6443 23.9147 31.1083 24.288 29.423 24.288ZM29.423 21.12C30.3617 21.12 31.2363 20.896 32.047 20.448C32.879 20 33.551 19.328 34.063 18.432C34.575 17.536 34.831 16.448 34.831 15.168C34.831 13.888 34.5857 12.8107 34.095 11.936C33.6043 11.04 32.9537 10.368 32.143 9.92C31.3323 9.472 30.4577 9.248 29.519 9.248C28.5803 9.248 27.7057 9.472 26.895 9.92C26.1057 10.368 25.4763 11.04 25.007 11.936C24.5377 12.8107 24.303 13.888 24.303 15.168C24.303 17.0667 24.783 18.5387 25.743 19.584C26.7243 20.608 27.951 21.12 29.423 21.12ZM58.1493 6.368V24H54.5013V21.92C53.9253 22.6453 53.1679 23.2213 52.2293 23.648C51.3119 24.0533 50.3306 24.256 49.2853 24.256C47.8986 24.256 46.6506 23.968 45.5413 23.392C44.4533 22.816 43.5893 21.9627 42.9493 20.832C42.3306 19.7013 42.0213 18.336 42.0213 16.736V6.368H45.6373V16.192C45.6373 17.7707 46.0319 18.9867 46.8213 19.84C47.6106 20.672 48.6879 21.088 50.0533 21.088C51.4186 21.088 52.4959 20.672 53.2853 19.84C54.0959 18.9867 54.5013 17.7707 54.5013 16.192V6.368H58.1493ZM77.675 24.288C76.2883 24.288 75.0403 24.0427 73.931 23.552C72.843 23.04 71.979 22.3573 71.339 21.504C70.699 20.6293 70.3577 19.6587 70.315 18.592H74.091C74.155 19.3387 74.507 19.968 75.147 20.48C75.8083 20.9707 76.6297 21.216 77.611 21.216C78.635 21.216 79.4243 21.024 79.979 20.64C80.555 20.2347 80.843 19.7227 80.843 19.104C80.843 18.4427 80.523 17.952 79.883 17.632C79.2643 17.312 78.2723 16.96 76.907 16.576C75.5843 16.2133 74.507 15.8613 73.675 15.52C72.843 15.1787 72.1177 14.656 71.499 13.952C70.9017 13.248 70.603 12.32 70.603 11.168C70.603 10.2293 70.8803 9.376 71.435 8.608C71.9897 7.81867 72.779 7.2 73.803 6.752C74.8483 6.304 76.043 6.08 77.387 6.08C79.3923 6.08 81.003 6.592 82.219 7.616C83.4563 8.61867 84.1177 9.99467 84.203 11.744H80.555C80.491 10.9547 80.171 10.3253 79.595 9.856C79.019 9.38667 78.2403 9.152 77.259 9.152C76.299 9.152 75.563 9.33333 75.051 9.696C74.539 10.0587 74.283 10.5387 74.283 11.136C74.283 11.6053 74.4537 12 74.795 12.32C75.1363 12.64 75.5523 12.896 76.043 13.088C76.5337 13.2587 77.259 13.4827 78.219 13.76C79.499 14.1013 80.5443 14.4533 81.355 14.816C82.187 15.1573 82.9017 15.6693 83.499 16.352C84.0963 17.0347 84.4057 17.9413 84.427 19.072C84.427 20.0747 84.1497 20.9707 83.595 21.76C83.0403 22.5493 82.251 23.168 81.227 23.616C80.2243 24.064 79.0403 24.288 77.675 24.288ZM97.4888 6.08C98.8328 6.08 100.027 6.368 101.073 6.944C102.139 7.52 102.971 8.37333 103.569 9.504C104.187 10.6347 104.497 12 104.497 13.6V24H100.881V14.144C100.881 12.5653 100.486 11.36 99.6968 10.528C98.9074 9.67467 97.8301 9.248 96.4648 9.248C95.0994 9.248 94.0114 9.67467 93.2008 10.528C92.4114 11.36 92.0168 12.5653 92.0168 14.144V24H88.3688V0.32H92.0168V8.416C92.6354 7.66933 93.4141 7.09333 94.3528 6.688C95.3128 6.28267 96.3581 6.08 97.4888 6.08ZM116.798 24.288C115.134 24.288 113.63 23.9147 112.286 23.168C110.942 22.4 109.886 21.3333 109.118 19.968C108.35 18.5813 107.966 16.9813 107.966 15.168C107.966 13.376 108.361 11.7867 109.15 10.4C109.939 9.01333 111.017 7.94667 112.382 7.2C113.747 6.45333 115.273 6.08 116.958 6.08C118.643 6.08 120.169 6.45333 121.534 7.2C122.899 7.94667 123.977 9.01333 124.766 10.4C125.555 11.7867 125.95 13.376 125.95 15.168C125.95 16.96 125.545 18.5493 124.734 19.936C123.923 21.3227 122.814 22.4 121.406 23.168C120.019 23.9147 118.483 24.288 116.798 24.288ZM116.798 21.12C117.737 21.12 118.611 20.896 119.422 20.448C120.254 20 120.926 19.328 121.438 18.432C121.95 17.536 122.206 16.448 122.206 15.168C122.206 13.888 121.961 12.8107 121.47 11.936C120.979 11.04 120.329 10.368 119.518 9.92C118.707 9.472 117.833 9.248 116.894 9.248C115.955 9.248 115.081 9.472 114.27 9.92C113.481 10.368 112.851 11.04 112.382 11.936C111.913 12.8107 111.678 13.888 111.678 15.168C111.678 17.0667 112.158 18.5387 113.118 19.584C114.099 20.608 115.326 21.12 116.798 21.12ZM145.524 6.368V24H141.876V21.92C141.3 22.6453 140.543 23.2213 139.604 23.648C138.687 24.0533 137.706 24.256 136.66 24.256C135.274 24.256 134.026 23.968 132.916 23.392C131.828 22.816 130.964 21.9627 130.324 20.832C129.706 19.7013 129.396 18.336 129.396 16.736V6.368H133.012V16.192C133.012 17.7707 133.407 18.9867 134.196 19.84C134.986 20.672 136.063 21.088 137.428 21.088C138.794 21.088 139.871 20.672 140.66 19.84C141.471 18.9867 141.876 17.7707 141.876 16.192V6.368H145.524ZM153.986 0.32V24H150.338V0.32H153.986ZM157.559 15.104C157.559 13.3333 157.922 11.7653 158.647 10.4C159.394 9.03467 160.396 7.97867 161.655 7.232C162.935 6.464 164.354 6.08 165.911 6.08C167.063 6.08 168.194 6.336 169.303 6.848C170.434 7.33867 171.33 8 171.991 8.832V0.32H175.671V24H171.991V21.344C171.394 22.1973 170.562 22.9013 169.495 23.456C168.45 24.0107 167.244 24.288 165.879 24.288C164.343 24.288 162.935 23.904 161.655 23.136C160.396 22.3467 159.394 21.2587 158.647 19.872C157.922 18.464 157.559 16.8747 157.559 15.104ZM171.991 15.168C171.991 13.952 171.735 12.896 171.223 12C170.732 11.104 170.082 10.4213 169.271 9.952C168.46 9.48267 167.586 9.248 166.647 9.248C165.708 9.248 164.834 9.48267 164.023 9.952C163.212 10.4 162.551 11.072 162.039 11.968C161.548 12.8427 161.303 13.888 161.303 15.104C161.303 16.32 161.548 17.3867 162.039 18.304C162.551 19.2213 163.212 19.9253 164.023 20.416C164.855 20.8853 165.73 21.12 166.647 21.12C167.586 21.12 168.46 20.8853 169.271 20.416C170.082 19.9467 170.732 19.264 171.223 18.368C171.735 17.4507 171.991 16.384 171.991 15.168ZM184.463 19.616L180.591 28.448H178.223L180.495 19.616H184.463ZM219.387 1.76V24H215.739V8.768L208.955 24H206.427L199.611 8.768V24H195.963V1.76H199.899L207.707 19.2L215.483 1.76H219.387ZM231.829 24.288C230.165 24.288 228.661 23.9147 227.317 23.168C225.973 22.4 224.917 21.3333 224.149 19.968C223.381 18.5813 222.997 16.9813 222.997 15.168C222.997 13.376 223.392 11.7867 224.181 10.4C224.971 9.01333 226.048 7.94667 227.413 7.2C228.779 6.45333 230.304 6.08 231.989 6.08C233.675 6.08 235.2 6.45333 236.565 7.2C237.931 7.94667 239.008 9.01333 239.797 10.4C240.587 11.7867 240.981 13.376 240.981 15.168C240.981 16.96 240.576 18.5493 239.765 19.936C238.955 21.3227 237.845 22.4 236.437 23.168C235.051 23.9147 233.515 24.288 231.829 24.288ZM231.829 21.12C232.768 21.12 233.643 20.896 234.453 20.448C235.285 20 235.957 19.328 236.469 18.432C236.981 17.536 237.237 16.448 237.237 15.168C237.237 13.888 236.992 12.8107 236.501 11.936C236.011 11.04 235.36 10.368 234.549 9.92C233.739 9.472 232.864 9.248 231.925 9.248C230.987 9.248 230.112 9.472 229.301 9.92C228.512 10.368 227.883 11.04 227.413 11.936C226.944 12.8107 226.709 13.888 226.709 15.168C226.709 17.0667 227.189 18.5387 228.149 19.584C229.131 20.608 230.357 21.12 231.829 21.12ZM251.404 20.736L256.396 6.368H260.267L253.548 24H249.196L242.508 6.368H246.411L251.404 20.736ZM279.185 14.752C279.185 15.4133 279.142 16.0107 279.057 16.544H265.585C265.692 17.952 266.214 19.0827 267.153 19.936C268.092 20.7893 269.244 21.216 270.609 21.216C272.572 21.216 273.958 20.3947 274.769 18.752H278.705C278.172 20.3733 277.201 21.7067 275.793 22.752C274.406 23.776 272.678 24.288 270.609 24.288C268.924 24.288 267.409 23.9147 266.065 23.168C264.742 22.4 263.697 21.3333 262.929 19.968C262.182 18.5813 261.809 16.9813 261.809 15.168C261.809 13.3547 262.172 11.7653 262.897 10.4C263.644 9.01333 264.678 7.94667 266.001 7.2C267.345 6.45333 268.881 6.08 270.609 6.08C272.273 6.08 273.756 6.44267 275.057 7.168C276.358 7.89333 277.372 8.91733 278.097 10.24C278.822 11.5413 279.185 13.0453 279.185 14.752ZM275.377 13.6C275.356 12.256 274.876 11.1787 273.937 10.368C272.998 9.55733 271.836 9.152 270.449 9.152C269.19 9.152 268.113 9.55733 267.217 10.368C266.321 11.1573 265.788 12.2347 265.617 13.6H275.377ZM286.423 1.76V24H282.775V1.76H286.423ZM295.469 9.344V19.104C295.469 19.7653 295.618 20.2453 295.917 20.544C296.237 20.8213 296.77 20.96 297.517 20.96H299.757V24H296.877C295.234 24 293.975 23.616 293.101 22.848C292.226 22.08 291.789 20.832 291.789 19.104V9.344H289.709V6.368H291.789V1.984H295.469V6.368H299.757V9.344H295.469ZM307.695 1.76L307.279 17.28H304.239L303.823 1.76H307.695ZM305.871 24.224C305.209 24.224 304.655 24 304.207 23.552C303.759 23.104 303.535 22.5493 303.535 21.888C303.535 21.2267 303.759 20.672 304.207 20.224C304.655 19.776 305.209 19.552 305.871 19.552C306.511 19.552 307.055 19.776 307.503 20.224C307.951 20.672 308.175 21.2267 308.175 21.888C308.175 22.5493 307.951 23.104 307.503 23.552C307.055 24 306.511 24.224 305.871 24.224Z" fill="black"/>
</svg>
